<svg data-v-423bf9ae="" xmlns="http://www.w3.org/2000/svg" viewBox="0 0 637 103" class="iconLeft"><!----><!----><!----><g data-v-423bf9ae="" id="c609e817-fd86-47b5-bd8e-6728eac743d5" fill="white" transform="matrix(5.581294536590576,0,0,5.581294536590576,111.88227844238281,20.57925796508789)"><path d="M6.44 10.50L6.44 10.50L6.44 6.50C6.44 6.40 6.37 6.33 6.27 6.33L3.28 6.33C3.19 6.33 3.11 6.40 3.11 6.50L3.11 10.50C3.11 10.58 3.19 10.65 3.28 10.65C3.36 10.65 3.44 10.58 3.44 10.50L3.44 6.65L6.12 6.65L6.12 10.50C6.12 10.58 6.19 10.65 6.27 10.65C6.37 10.65 6.44 10.58 6.44 10.50ZM3.11 0.49L3.11 0.49L3.11 4.49C3.11 4.58 3.19 4.66 3.28 4.66L6.27 4.66C6.37 4.66 6.44 4.58 6.44 4.49L6.44 0.49C6.44 0.41 6.37 0.34 6.27 0.34C6.19 0.34 6.12 0.41 6.12 0.49L6.12 4.33L3.44 4.33L3.44 0.49C3.44 0.41 3.36 0.34 3.28 0.34C3.19 0.34 3.11 0.41 3.11 0.49ZM8.12 0.49L8.12 0.49L8.12 10.50C8.12 10.58 8.19 10.65 8.27 10.65C8.37 10.65 8.44 10.58 8.44 10.50L8.44 0.49C8.44 0.41 8.37 0.34 8.27 0.34C8.19 0.34 8.12 0.41 8.12 0.49ZM1.44 10.50L1.44 10.50L1.44 0.49C1.44 0.41 1.37 0.34 1.27 0.34C1.19 0.34 1.12 0.41 1.12 0.49L1.12 10.50C1.12 10.58 1.19 10.65 1.27 10.65C1.37 10.65 1.44 10.58 1.44 10.50ZM13.34 7.57L13.34 7.57L14.81 7.57C14.91 7.57 14.98 7.50 14.98 7.42C14.98 7.39 14.98 7.38 14.97 7.35L14.24 5.56C14.20 5.46 14.11 5.42 14.01 5.46C13.94 5.49 13.90 5.59 13.93 5.67L14.59 7.27L13.34 7.27C13.26 7.27 13.17 7.34 13.17 7.42C13.17 7.50 13.26 7.57 13.34 7.57ZM12.29 10.40L12.29 10.40L12.63 9.59L15.53 9.59L15.86 10.40C15.90 10.50 15.99 10.53 16.07 10.50C16.16 10.47 16.20 10.36 16.17 10.29L15.79 9.38C15.78 9.32 15.72 9.28 15.64 9.28L12.53 9.28C12.46 9.28 12.39 9.31 12.38 9.38L12.00 10.29C11.96 10.36 12.00 10.47 12.10 10.50C12.18 10.53 12.26 10.50 12.29 10.40ZM10.12 10.40L10.12 10.40L14.08 0.70L18.05 10.40C18.07 10.50 18.17 10.53 18.26 10.50C18.34 10.47 18.37 10.36 18.34 10.29L14.24 0.22C14.18 0.08 13.99 0.07 13.93 0.22L9.83 10.29C9.79 10.36 9.83 10.47 9.91 10.50C10.00 10.53 10.09 10.50 10.12 10.40ZM23.67 4.65L23.67 4.65C24.23 4.65 24.58 4.35 24.75 3.96C24.88 3.67 24.88 3.32 24.75 3.02C24.58 2.63 24.23 2.34 23.67 2.34L21.91 2.34C21.81 2.34 21.74 2.41 21.74 2.49C21.74 2.59 21.81 2.66 21.91 2.66L23.67 2.66C24.08 2.66 24.35 2.88 24.46 3.15C24.54 3.37 24.54 3.63 24.46 3.84C24.35 4.13 24.07 4.34 23.67 4.34L23.10 4.34C23.02 4.34 22.95 4.41 22.95 4.49C22.95 4.58 23.02 4.65 23.10 4.65ZM20.08 10.50L20.08 10.50L20.08 0.66L23.84 0.66C25.16 0.66 26.00 1.39 26.38 2.34C26.66 3.07 26.66 3.92 26.38 4.65C26.00 5.60 25.16 6.33 23.84 6.33L21.91 6.33C21.81 6.33 21.74 6.40 21.74 6.48L21.74 10.50C21.74 10.58 21.81 10.65 21.91 10.65C21.99 10.65 22.06 10.58 22.06 10.50L22.06 6.66L23.84 6.66C25.31 6.66 26.26 5.82 26.68 4.79C26.99 3.96 26.99 3.02 26.68 2.21C26.26 1.16 25.31 0.34 23.84 0.34L19.91 0.34C19.82 0.34 19.75 0.42 19.75 0.50L19.75 10.50C19.75 10.58 19.82 10.65 19.91 10.65C19.99 10.65 20.08 10.58 20.08 10.50ZM32.42 4.65L32.42 4.65C32.98 4.65 33.33 4.35 33.50 3.96C33.63 3.67 33.63 3.32 33.50 3.02C33.33 2.63 32.98 2.34 32.42 2.34L30.66 2.34C30.56 2.34 30.49 2.41 30.49 2.49C30.49 2.59 30.56 2.66 30.66 2.66L32.42 2.66C32.83 2.66 33.10 2.88 33.21 3.15C33.29 3.37 33.29 3.63 33.21 3.84C33.10 4.13 32.82 4.34 32.42 4.34L31.85 4.34C31.77 4.34 31.70 4.41 31.70 4.49C31.70 4.58 31.77 4.65 31.85 4.65ZM28.83 10.50L28.83 10.50L28.83 0.66L32.59 0.66C33.91 0.66 34.75 1.39 35.13 2.34C35.41 3.07 35.41 3.92 35.13 4.65C34.75 5.60 33.91 6.33 32.59 6.33L30.66 6.33C30.56 6.33 30.49 6.40 30.49 6.48L30.49 10.50C30.49 10.58 30.56 10.65 30.66 10.65C30.74 10.65 30.81 10.58 30.81 10.50L30.81 6.66L32.59 6.66C34.06 6.66 35.01 5.82 35.43 4.79C35.74 3.96 35.74 3.02 35.43 2.21C35.01 1.16 34.06 0.34 32.59 0.34L28.66 0.34C28.57 0.34 28.50 0.42 28.50 0.50L28.50 10.50C28.50 10.58 28.57 10.65 28.66 10.65C28.74 10.65 28.83 10.58 28.83 10.50ZM38.70 0.57L38.70 0.57L40.73 4.05C40.80 4.16 40.95 4.16 41.02 4.05L43.06 0.57C43.11 0.49 43.08 0.39 43.01 0.35C42.92 0.31 42.84 0.34 42.77 0.41L40.87 3.64L38.96 0.41C38.92 0.34 38.82 0.31 38.75 0.35C38.67 0.39 38.64 0.49 38.70 0.57ZM45.22 0.41L45.22 0.41L41.73 5.94C41.72 5.98 41.72 6.01 41.72 6.03L41.72 10.47C41.72 10.58 41.79 10.65 41.87 10.65C41.96 10.65 42.03 10.58 42.03 10.47L42.03 6.08L45.50 0.57C45.54 0.50 45.53 0.41 45.44 0.35C45.37 0.31 45.28 0.34 45.22 0.41ZM40.04 10.47L40.04 10.47L40.04 6.02C40.04 5.99 40.03 5.96 40.01 5.94L36.53 0.41C36.47 0.34 36.37 0.31 36.30 0.35C36.23 0.41 36.20 0.50 36.26 0.57L39.70 6.08L39.70 10.47C39.70 10.58 39.77 10.65 39.87 10.65C39.97 10.65 40.04 10.58 40.04 10.47ZM51.81 0.66L51.81 0.66L53.75 5.42C53.80 5.54 54.00 5.54 54.05 5.42L55.83 1.02L57.62 5.42C57.68 5.54 57.88 5.54 57.93 5.42L59.88 0.66C59.91 0.57 59.86 0.49 59.77 0.45C59.70 0.41 59.60 0.46 59.57 0.55L57.78 4.91L56 0.55C55.99 0.50 55.94 0.48 55.90 0.45C55.82 0.41 55.72 0.46 55.69 0.55L53.91 4.91L52.12 0.55C52.09 0.46 51.98 0.41 51.90 0.45C51.83 0.49 51.79 0.57 51.81 0.66ZM61.75 0.55L61.75 0.55L57.78 10.28L56 5.89C55.94 5.75 55.75 5.77 55.69 5.89L53.91 10.28L49.92 0.55C49.90 0.46 49.80 0.41 49.73 0.45C49.64 0.49 49.59 0.57 49.64 0.66L53.75 10.77C53.76 10.81 53.79 10.84 53.84 10.85C53.93 10.88 54.01 10.85 54.05 10.77L55.83 6.37L57.62 10.77C57.64 10.81 57.67 10.84 57.72 10.85C57.81 10.88 57.89 10.85 57.93 10.77L62.05 0.66C62.08 0.57 62.05 0.49 61.96 0.45C61.87 0.41 61.78 0.46 61.75 0.55ZM64.83 7.57L64.83 7.57L66.30 7.57C66.40 7.57 66.47 7.50 66.47 7.42C66.47 7.39 66.47 7.38 66.46 7.35L65.73 5.56C65.69 5.46 65.60 5.42 65.51 5.46C65.44 5.49 65.39 5.59 65.42 5.67L66.08 7.27L64.83 7.27C64.75 7.27 64.67 7.34 64.67 7.42C64.67 7.50 64.75 7.57 64.83 7.57ZM63.78 10.40L63.78 10.40L64.12 9.59L67.02 9.59L67.35 10.40C67.40 10.50 67.48 10.53 67.56 10.50C67.65 10.47 67.69 10.36 67.66 10.29L67.28 9.38C67.27 9.32 67.21 9.28 67.13 9.28L64.02 9.28C63.95 9.28 63.88 9.31 63.87 9.38L63.49 10.29C63.45 10.36 63.49 10.47 63.59 10.50C63.67 10.53 63.76 10.50 63.78 10.40ZM61.61 10.40L61.61 10.40L65.58 0.70L69.54 10.40C69.57 10.50 69.66 10.53 69.75 10.50C69.83 10.47 69.86 10.36 69.83 10.29L65.73 0.22C65.67 0.08 65.48 0.07 65.42 0.22L61.32 10.29C61.28 10.36 61.32 10.47 61.40 10.50C61.49 10.53 61.59 10.50 61.61 10.40ZM76.90 2.34L76.90 2.34L74.40 2.34C74.31 2.34 74.24 2.41 74.24 2.49L74.24 10.50C74.24 10.58 74.31 10.65 74.40 10.65C74.48 10.65 74.55 10.58 74.55 10.50L74.55 2.67L76.90 2.67C76.99 2.67 77.06 2.59 77.06 2.49C77.06 2.41 76.99 2.34 76.90 2.34ZM69.90 0.66L69.90 0.66L76.89 0.66C76.99 0.66 77.06 0.59 77.06 0.50C77.06 0.42 76.99 0.35 76.89 0.35L69.90 0.35C69.82 0.35 69.75 0.42 69.75 0.50C69.75 0.59 69.82 0.66 69.90 0.66ZM69.90 2.67L69.90 2.67L72.24 2.67L72.24 10.50C72.24 10.58 72.31 10.65 72.41 10.65C72.49 10.65 72.56 10.58 72.56 10.50L72.56 2.49C72.56 2.41 72.49 2.34 72.41 2.34L69.90 2.34C69.82 2.34 69.75 2.41 69.75 2.49C69.75 2.59 69.82 2.67 69.90 2.67ZM85.02 0.64L85.02 0.64C84.38 0.38 83.69 0.24 82.99 0.24C80.50 0.24 78.90 1.58 78.20 3.32C77.66 4.65 77.66 6.22 78.20 7.56C78.90 9.28 80.50 10.63 82.99 10.63C83.69 10.63 84.38 10.50 85.02 10.23C85.11 10.19 85.15 10.11 85.11 10.01C85.08 9.94 84.97 9.90 84.90 9.93C84.29 10.19 83.65 10.30 82.99 10.30C80.64 10.30 79.14 9.06 78.48 7.43C77.98 6.17 77.98 4.70 78.48 3.43C79.14 1.83 80.64 0.56 82.99 0.56C83.65 0.56 84.29 0.69 84.90 0.94C84.97 0.97 85.08 0.94 85.11 0.85C85.13 0.77 85.11 0.67 85.02 0.64ZM84.63 7.88L84.63 7.88C84.08 8.19 83.62 8.30 82.99 8.30C81.65 8.30 80.81 7.57 80.43 6.62C80.14 5.88 80.14 5.00 80.43 4.26C80.81 3.32 81.65 2.58 82.99 2.58C83.62 2.58 84.08 2.69 84.63 2.98C84.71 3.02 84.80 3.00 84.84 2.93C84.88 2.84 84.85 2.74 84.78 2.70C84.18 2.37 83.68 2.25 82.99 2.25C81.51 2.25 80.54 3.08 80.14 4.14C79.81 4.96 79.81 5.91 80.14 6.73C80.54 7.80 81.51 8.61 82.99 8.61C83.68 8.61 84.18 8.50 84.78 8.16C84.85 8.12 84.88 8.02 84.84 7.95C84.80 7.87 84.71 7.84 84.63 7.88ZM92.05 10.50L92.05 10.50L92.05 6.50C92.05 6.40 91.98 6.33 91.88 6.33L88.89 6.33C88.80 6.33 88.72 6.40 88.72 6.50L88.72 10.50C88.72 10.58 88.80 10.65 88.89 10.65C88.97 10.65 89.05 10.58 89.05 10.50L89.05 6.65L91.73 6.65L91.73 10.50C91.73 10.58 91.80 10.65 91.88 10.65C91.98 10.65 92.05 10.58 92.05 10.50ZM88.72 0.49L88.72 0.49L88.72 4.49C88.72 4.58 88.80 4.66 88.89 4.66L91.88 4.66C91.98 4.66 92.05 4.58 92.05 4.49L92.05 0.49C92.05 0.41 91.98 0.34 91.88 0.34C91.80 0.34 91.73 0.41 91.73 0.49L91.73 4.33L89.05 4.33L89.05 0.49C89.05 0.41 88.97 0.34 88.89 0.34C88.80 0.34 88.72 0.41 88.72 0.49ZM93.73 0.49L93.73 0.49L93.73 10.50C93.73 10.58 93.80 10.65 93.88 10.65C93.98 10.65 94.05 10.58 94.05 10.50L94.05 0.49C94.05 0.41 93.98 0.34 93.88 0.34C93.80 0.34 93.73 0.41 93.73 0.49ZM87.05 10.50L87.05 10.50L87.05 0.49C87.05 0.41 86.98 0.34 86.88 0.34C86.80 0.34 86.73 0.41 86.73 0.49L86.73 10.50C86.73 10.58 86.80 10.65 86.88 10.65C86.98 10.65 87.05 10.58 87.05 10.50Z"></path></g><!----><g data-v-423bf9ae="" id="14969558-b947-4ce5-861e-5cb12cf2be3e" transform="matrix(1.0666667222976685,0,0,1.0666667222976685,-1.200002670288086,0.7999973297119141)" stroke="none" fill="white"><path d="M34 68.476a1.98 1.98 0 0 1-1-.264 2 2 0 0 1-1-1.736V29.524c0-.716.38-1.376 1-1.732a1.987 1.987 0 0 1 2 0l32 18.476c.62.356 1 1.016 1 1.732 0 .724-.38 1.384-1 1.74L35 68.216c-.308.176-.656.26-1 .26zm2-35.488v30.024L62 48 36 32.988zM92 4H4c-1.104 0-2-.9-2-2s.896-2 2-2h88c1.1 0 2 .9 2 2s-.9 2-2 2zM92 96H4c-1.104 0-2-.9-2-2s.896-2 2-2h88c1.1 0 2 .9 2 2s-.9 2-2 2zM8 12H4c-1.104 0-2-.9-2-2s.896-2 2-2h4c1.104 0 2 .9 2 2s-.896 2-2 2zM20 12h-4c-1.104 0-2-.9-2-2s.896-2 2-2h4c1.104 0 2 .9 2 2s-.896 2-2 2zM32 12h-4c-1.104 0-2-.9-2-2s.896-2 2-2h4c1.104 0 2 .9 2 2s-.896 2-2 2zM44 12h-4c-1.104 0-2-.9-2-2s.896-2 2-2h4c1.104 0 2 .9 2 2s-.896 2-2 2zM56 12h-4c-1.1 0-2-.9-2-2s.9-2 2-2h4c1.1 0 2 .9 2 2s-.9 2-2 2zM68 12h-4c-1.1 0-2-.9-2-2s.9-2 2-2h4c1.1 0 2 .9 2 2s-.9 2-2 2zM80 12h-4c-1.1 0-2-.9-2-2s.9-2 2-2h4c1.1 0 2 .9 2 2s-.9 2-2 2zM92 12h-4c-1.1 0-2-.9-2-2s.9-2 2-2h4c1.1 0 2 .9 2 2s-.9 2-2 2zM8 88H4c-1.104 0-2-.9-2-2s.896-2 2-2h4c1.104 0 2 .9 2 2s-.896 2-2 2zM20 88h-4c-1.104 0-2-.9-2-2s.896-2 2-2h4c1.104 0 2 .9 2 2s-.896 2-2 2zM32 88h-4c-1.104 0-2-.9-2-2s.896-2 2-2h4c1.104 0 2 .9 2 2s-.896 2-2 2zM44 88h-4c-1.104 0-2-.9-2-2s.896-2 2-2h4c1.104 0 2 .9 2 2s-.896 2-2 2zM56 88h-4c-1.1 0-2-.9-2-2s.9-2 2-2h4c1.1 0 2 .9 2 2s-.9 2-2 2zM68 88h-4c-1.1 0-2-.9-2-2s.9-2 2-2h4c1.1 0 2 .9 2 2s-.9 2-2 2zM80 88h-4c-1.1 0-2-.9-2-2s.9-2 2-2h4c1.1 0 2 .9 2 2s-.9 2-2 2zM92 88h-4c-1.1 0-2-.9-2-2s.9-2 2-2h4c1.1 0 2 .9 2 2s-.9 2-2 2zM18 76H4c-1.104 0-2-.9-2-2s.896-2 2-2h12V24H4c-1.104 0-2-.9-2-2s.896-2 2-2h14c1.104 0 2 .9 2 2v52c0 1.1-.896 2-2 2zM92 76H78c-1.1 0-2-.9-2-2V22c0-1.1.9-2 2-2h14c1.1 0 2 .9 2 2s-.9 2-2 2H80v48h12c1.1 0 2 .9 2 2s-.9 2-2 2z"></path></g><!----></svg>